PathFileType	4	(X/Y/Z)	walk-thru1-5-TP.trc
DataRate	CameraRate	NumFrames	NumMarkers	Units	OrigDataRate	OrigDataStartFrame	OrigNumFrames
120.00	120.00	       4	60	mm	120.00	326	       521
Frame#	Time	Top.Head			Front.Head			Rear.Head			Jaw			C7			R.Clavicle			L.Clavicle			R.Shoulder			L.Shoulder			R.Scapula			L.Scapula			R.Scap.Inf			R.Biceps.Lateral			R.Elbow			R.Elbow.Medial			R.Forearm			R.Ulna			R.Radius			R.Wrist			R.Thumb.M1			R.Thumb.M2			R.Thumb.M3			R.Finger3.M1			R.Finger3.M2			R.Finger3.M3			L.Biceps.Lateral			L.Elbow			L.Elbow.Medial			L.Forearm			L.Ulna			L.Radius			L.Wrist			L.Thumb.M1			L.Thumb.M2			L.Thumb.M3			L.Finger3.M1			L.Finger3.M2			L.Finger3.M3			V.Sacral			R.ASIS			L.ASIS			R.Thigh			R.Thigh.Front			R.Knee			R.Knee.Medial			R.Shank			R.Ankle			R.Ankle.Medial			R.Heel			R.Toe			R.MedFoot			L.Thigh			L.Knee			L.Knee.Medial			L.Shank			L.Ankle			L.Ankle.Medial			L.Heel			L.Toe			L.MedFoot			V_mid_ASIS			V_R_Knee_JC			V_L_Knee_JC			V_R_Elbow_JC			V_L_Elbow_JC			V_R_Ankle_JC			V_L_Ankle_JC			V_R_Wrist_JC			V_L_Wrist_JC			V_R_ScaTrpz_1stMC_JC			V_R_1stMC_1stPP_JC			V_R_1stPP_1stDP_JC			V_R_LunCap_3rdMC_JC			V_R_3rdMC_3rdPP_JC			V_R_3rdPP_3rdMP_JC			V_R_3rdMP_3rdDP_JC			V_L_ScaTrpz_1stMC_JC			V_L_1stMC_1stPP_JC			V_L_1stPP_1stDP_JC			V_L_LunCap_3rdMC_JC			V_L_3rdMC_3rdPP_JC			V_L_3rdPP_3rdMP_JC			V_L_3rdMP_3rdPP_JC			V_ROOT_JC			V_R_Hip_JC			V_L_Hip_JC			V_R_GlenHum_JC			V_L_GlenHum_JC			V_ForeHead_Ctr			V_Vertex			V_Sagit_Lambdoid_Suture			V_R_FrontoTemp			V_L_FrontoTemporal			V_R_ParietalOccip			V_L_ParietalOcciptal			V_R_Temporal			V_L_Temporal			V_mid_FrontRearHead			V_mid_RLGlenHumCtrs			V_C7_vert			V_C1_vert			V_Mid_Hip			
		X1	Y1	Z1	X2	Y2	Z2	X3	Y3	Z3	X4	Y4	Z4	X5	Y5	Z5	X6	Y6	Z6	X7	Y7	Z7	X8	Y8	Z8	X9	Y9	Z9	X10	Y10	Z10	X11	Y11	Z11	X12	Y12	Z12	X13	Y13	Z13	X14	Y14	Z14	X15	Y15	Z15	X16	Y16	Z16	X17	Y17	Z17	X18	Y18	Z18	X19	Y19	Z19	X20	Y20	Z20	X21	Y21	Z21	X22	Y22	Z22	X23	Y23	Z23	X24	Y24	Z24	X25	Y25	Z25	X26	Y26	Z26	X27	Y27	Z27	X28	Y28	Z28	X29	Y29	Z29	X30	Y30	Z30	X31	Y31	Z31	X32	Y32	Z32	X33	Y33	Z33	X34	Y34	Z34	X35	Y35	Z35	X36	Y36	Z36	X37	Y37	Z37	X38	Y38	Z38	X39	Y39	Z39	X40	Y40	Z40	X41	Y41	Z41	X42	Y42	Z42	X43	Y43	Z43	X44	Y44	Z44	X45	Y45	Z45	X46	Y46	Z46	X47	Y47	Z47	X48	Y48	Z48	X49	Y49	Z49	X50	Y50	Z50	X51	Y51	Z51	X52	Y52	Z52	X53	Y53	Z53	X54	Y54	Z54	X55	Y55	Z55	X56	Y56	Z56	X57	Y57	Z57	X58	Y58	Z58	X59	Y59	Z59	X60	Y60	Z60	

326	2.708	-182.82268	88.78386	1799.75281	-284.88153	76.96735	1688.62048	-57.13367	90.09056	1701.96643	-239.27913	78.94286	1521.19788	-43.44242	89.90139	1566.49036	-147.17741	197.00140	1469.76636	-143.92299	-29.66560	1474.31165	-110.81284	287.56210	1464.06287	-73.39961	-122.72321	1485.22644	2.39387	177.57376	1479.84094	9.95009	8.18042	1487.42456	49.52183	188.65869	1392.93921	-71.67574	349.25430	1284.83008	-44.91240	369.39093	1131.23645	-19.12120	281.89200	1112.16565	-136.91313	311.38800	1024.40894	-116.92483	353.29123	920.87030	-177.50645	288.36057	897.93115	-179.07234	325.92743	849.19037	-191.61771	281.12418	865.55536	-228.00204	247.60132	823.51715	-265.39517	242.95401	798.13757	-227.69870	326.65924	784.25830	-243.30052	284.53806	732.70874	-228.66768	239.03424	710.43982	-37.02538	-187.67664	1340.95129	-9.58883	-233.88727	1167.21643	34.17479	-166.45651	1151.54517	-69.66522	-209.82127	1058.14380	-14.30241	-235.50215	972.43481	-80.64911	-184.26651	917.12750	-69.61389	-220.19400	860.23126	-84.02229	-172.22998	850.35974	-77.43387	-139.26372	801.09564	-76.70074	-147.03139	738.54138	-78.11935	-235.99680	785.31567	-61.22398	-218.86475	729.63708	-34.69318	-199.71111	687.84369	51.31920	71.64887	1089.47290	-43.47160	258.04504	1029.92944	-50.78623	-118.81583	1033.56091	-65.61134	197.71375	622.47528	-132.41774	107.44160	547.76019	-74.18391	162.67528	492.78235	-67.58031	50.04836	500.88300	-61.16366	112.93703	313.95001	73.08910	132.33684	71.34853	35.86480	35.62566	93.31892	131.06700	70.86169	50.40259	-109.28844	101.28143	45.47341	-40.48331	56.08435	69.04701	-189.49120	-116.19438	668.27045	-247.81987	-95.60464	533.95367	-251.97690	20.95566	529.37592	-251.44861	-53.28500	334.57153	-152.88869	-86.62701	93.10529	-185.73419	6.89919	128.90613	-98.71917	-26.64055	80.42752	-320.77313	-30.93894	66.60219	-271.37476	-4.88576	85.66567																																																																																																																															
327	2.717	-189.63632	89.25075	1799.74780	-289.34723	76.62407	1687.74988	-62.16872	89.23819	1701.22632	-244.69598	78.86977	1521.47241	-49.39865	87.42496	1566.23206	-151.36554	196.99754	1469.68555	-149.91597	-29.93990	1474.16626	-116.34842	287.27960	1463.32556	-78.94101	-121.95806	1484.18506	-2.88458	177.02919	1480.21130	4.04564	8.27853	1486.97803	44.66970	188.50581	1393.01709	-76.61681	348.64511	1284.49121	-49.72845	368.97345	1131.13135	-24.39634	281.08273	1112.41943	-141.91682	312.05032	1023.51630	-121.15398	353.08719	920.31970	-182.54703	288.17026	897.94275	-184.55249	327.75275	848.97491	-196.00790	281.01242	864.53296	-233.45662	247.35245	823.95764	-270.60608	243.24657	797.97449	-233.36501	326.75183	783.27698	-248.86636	284.52206	732.75171	-234.02643	238.74889	710.42920	-43.38022	-187.42075	1340.08923	-15.22617	-234.90984	1167.05115	27.86810	-168.15140	1152.03381	-75.78116	-210.86501	1057.82983	-20.30785	-235.65652	971.77448	-86.63614	-183.43785	916.66052	-76.19347	-219.78508	859.86499	-90.52911	-173.31569	849.51245	-82.04026	-139.40643	799.66553	-82.98676	-147.76945	738.18512	-84.90072	-236.42239	784.44501	-67.62072	-218.25214	728.54492	-41.08771	-199.47014	687.24927	45.72464	71.72046	1088.75586	-48.48138	256.92618	1029.63623	-56.44457	-119.01064	1033.32568	-68.63141	197.06744	622.17456	-133.57928	107.05165	547.23035	-75.38449	162.76947	492.65851	-68.36299	49.86340	500.40695	-61.64980	112.72859	313.60818	72.70258	132.27419	71.48289	35.55491	34.96671	93.25098	131.24767	70.88917	51.02378	-109.20270	101.43313	45.58378	-40.21187	55.82395	69.16689	-194.47583	-114.99238	667.33856	-253.64088	-94.83193	534.04333	-257.49710	21.35457	529.53680	-262.50592	-52.55750	334.67007	-169.16966	-85.24509	90.79533	-201.78812	9.73982	127.98703	-116.09296	-24.91038	76.83118	-338.04831	-29.53819	67.78243	-288.79031	-3.67191	86.16226																																																																																																																															
328	2.725	-193.80431	88.87217	1799.20520	-295.36166	76.91753	1688.00806	-67.68047	90.13615	1701.13977	-250.49217	78.38927	1520.83923	-55.23764	84.48940	1564.14783	-158.10756	196.98369	1469.09497	-155.38632	-30.31703	1473.39661	-122.15223	286.14151	1462.80896	-84.57043	-123.33441	1483.67432	-8.52296	176.16722	1479.49878	-1.14097	8.08836	1486.80273	38.20584	188.10201	1392.33643	-81.21661	348.38269	1284.03662	-54.67239	368.16776	1130.55383	-29.57624	279.83130	1112.24243	-147.40083	311.17041	1023.80103	-125.27216	352.54785	919.55621	-187.31898	287.57950	897.87982	-189.85741	326.50751	848.94708	-201.03473	281.26773	864.24811	-238.50954	247.41071	822.20129	-276.62997	242.79926	796.98932	-238.43523	326.93878	782.65179	-253.31673	284.84952	732.25244	-239.13631	239.07574	709.79755	-49.22264	-188.03491	1339.33594	-21.46501	-234.58463	1166.52173	22.22794	-167.73392	1150.85413	-82.11686	-210.85548	1057.56287	-26.64128	-235.25188	971.10535	-91.88398	-184.44301	916.12476	-83.16322	-219.32779	859.92261	-97.30662	-171.92679	850.16400	-88.70877	-139.25858	799.73029	-89.19739	-145.31322	738.02930	-91.42052	-235.93690	784.06891	-73.54199	-218.41255	727.88049	-47.55157	-199.27072	686.59772	39.66083	71.03939	1087.68616	-53.99948	256.91321	1028.13940	-61.87056	-119.63329	1032.56982	-70.99372	196.86475	621.73602	-136.81691	106.86082	546.83551	-76.53985	162.25272	492.68073	-70.61893	50.04375	500.37372	-62.57210	112.78043	313.06052	72.55539	132.20592	72.17074	35.25537	34.94842	93.76709	131.06647	70.71893	51.69860	-109.60093	101.44358	45.74352	-40.11896	55.62772	68.80391	-200.05307	-115.87765	666.75153	-259.13046	-93.91682	533.50354	-263.34537	22.18179	529.02966	-272.48959	-52.48105	334.79349	-185.42741	-83.74684	88.40165	-217.47491	10.20733	126.70206	-132.27925	-23.34903	73.38308	-355.12909	-28.87453	69.50687	-304.92581	-4.11021	87.21944																																																																																																																															
329	2.733	-199.21040	88.81926	1799.13660	-300.44525	76.08671	1686.89600	-73.21278	89.12437	1700.78625	-255.49803	77.47559	1520.43396	-60.77555	85.40289	1564.66077	-163.09798	196.36610	1468.26172	-161.19518	-31.31531	1472.95020	-127.07855	285.52203	1462.34265	-90.52699	-124.85819	1483.35339	-15.30619	175.68134	1479.69995	-6.92310	6.49087	1486.53821	33.01491	186.91476	1391.84155	-87.04451	346.94748	1283.45752	-59.69051	367.84155	1129.52686	-34.64528	278.55078	1112.63440	-153.19826	310.04446	1023.73035	-131.19482	351.38681	918.85150	-192.77193	287.52856	897.07227	-193.45398	325.09500	847.47266	-205.50859	279.55307	863.60095	-243.28915	247.05258	821.95416	-281.34869	242.00357	796.61908	-241.61728	326.51608	781.90680	-259.19846	284.27359	731.35785	-243.91214	238.74982	708.89429	-55.82118	-187.97197	1338.69153	-28.01332	-235.19185	1165.65051	16.19415	-169.24240	1150.55444	-89.76398	-211.46007	1057.04956	-32.88415	-236.27202	970.58606	-99.45760	-184.15163	916.49719	-89.52291	-219.05759	859.13544	-103.64040	-173.06497	849.18127	-96.64066	-140.13461	798.61902	-97.28754	-146.46535	737.37396	-98.37406	-236.42572	783.30035	-80.64784	-218.10254	727.24298	-54.27728	-199.16219	686.45154	34.03785	70.73812	1087.81165	-58.97383	257.49850	1027.59424	-68.82228	-120.04301	1031.81567	-74.48231	196.73117	622.01239	-138.72385	106.71019	545.80402	-79.10681	162.05174	492.12311	-72.50880	49.03326	499.97134	-63.40966	113.05854	313.34430	72.28819	132.20248	72.29094	35.29368	35.06696	94.63517	130.89909	70.45605	52.43365	-109.70181	101.60874	45.95438	-40.52987	55.89305	68.75324	-204.83849	-115.47795	665.99884	-264.91339	-94.39847	533.43274	-268.76321	22.53273	528.91602	-281.89966	-50.61417	335.04520	-201.48259	-83.29302	87.12619	-232.49820	11.15582	124.80943	-146.38007	-22.27073	71.32757	-371.73044	-28.37317	70.47550	-320.79321	-3.27660	87.03250																																																																																																																															
